<?xml version="1.0" encoding="UTF-8"?><svg id="uuid-98a93e6d-edd8-40a5-ac3a-379a8f84cc33" xmlns="http://www.w3.org/2000/svg" viewBox="0 0 107.54 81.65"><defs><style>.uuid-a8f30b65-0e2e-4754-a31e-f7d0196bea2c{fill:none;}.uuid-20479cec-ccdf-4a6c-bc25-9af62e9c37a5{fill:#242627;}.uuid-dcd3fd9f-edec-497e-b35e-ab9b63164f18{fill:#dfaa9f;}</style></defs><g id="uuid-2e289286-bef6-4aba-b0b3-78d53529ec69"><g><g><rect class="uuid-a8f30b65-0e2e-4754-a31e-f7d0196bea2c" y="0" width="107.54" height="81.65"/><g><rect class="uuid-20479cec-ccdf-4a6c-bc25-9af62e9c37a5" x="62.78" y="59.33" width="3.17" height="3.17" rx="1.27" ry="1.27"/><path class="uuid-20479cec-ccdf-4a6c-bc25-9af62e9c37a5" d="M35.13,62.5h-2.79c-.38,0-.61-.19-.69-.55l-.34-1.7h-3.15l-.34,1.7c-.08,.36-.3,.55-.69,.55h-2.73l3.53-12.5h3.67l3.53,12.5Zm-6.45-4.85h2.12l-1.05-5.17-1.07,5.17Z"/><path class="uuid-20479cec-ccdf-4a6c-bc25-9af62e9c37a5" d="M38.05,50c.4,0,.63,.23,.63,.63v8.95h3.74c.4,0,.63,.23,.63,.63v2.29h-7.54v-12.5h2.54Z"/><path class="uuid-20479cec-ccdf-4a6c-bc25-9af62e9c37a5" d="M51.2,52.31c0,.4-.23,.63-.63,.63h-3.68v1.76h3.3c.4,0,.63,.23,.63,.63v1.66c0,.4-.23,.63-.63,.63h-3.3v1.95h3.68c.4,0,.63,.23,.63,.63v2.31h-7.48v-12.5h7.48v2.31Z"/><path class="uuid-20479cec-ccdf-4a6c-bc25-9af62e9c37a5" d="M58.56,56.13l3.67,6.38h-3.19c-.34,0-.59-.15-.73-.48l-1.53-3.34-1.57,3.34c-.13,.32-.36,.48-.72,.48h-3.11l3.67-6.38-3.49-6.13h3.15c.34,0,.57,.15,.72,.48l1.39,3.09,1.41-3.09c.13-.32,.38-.48,.73-.48h3.11l-3.51,6.13Z"/><g><path class="uuid-20479cec-ccdf-4a6c-bc25-9af62e9c37a5" d="M74.48,51.03c-.04,.29-.21,.44-.5,.44h-4.52l-.48,3.95h4.07c.32,0,.52,.17,.46,.52l-.08,.5c-.04,.29-.19,.44-.5,.44h-4.14l-.52,4.16h4.47c.31,0,.48,.17,.44,.5l-.1,.97h-6.59l1.53-12.5h6.59l-.13,1.03Z"/><path class="uuid-20479cec-ccdf-4a6c-bc25-9af62e9c37a5" d="M80.85,55.75c1.66,.69,2.35,1.85,2.06,3.74l-.04,.25c-.3,1.99-1.53,3-3.82,3-1.15,0-2.25-.29-3.49-.88l.13-1.05c.04-.36,.27-.5,.57-.34,.69,.34,1.53,.63,2.16,.78,.27,.04,.4,.04,.67,.04,1.3,0,1.95-.53,2.14-1.68l.04-.21c.21-1.18-.15-1.79-1.28-2.25l-1.7-.69c-1.66-.67-2.39-2.16-1.97-4.01l.04-.17c.36-1.62,1.57-2.5,3.84-2.5,.74,0,1.76,.15,2.94,.44l-.13,1.07c-.04,.31-.25,.46-.57,.36-.52-.15-1.11-.31-1.7-.4-.23-.02-.42-.02-.65-.02-1.28,0-1.95,.5-2.1,1.43l-.04,.23c-.17,1.07,.21,1.77,1.32,2.21l1.58,.65Z"/></g></g><g><path class="uuid-20479cec-ccdf-4a6c-bc25-9af62e9c37a5" d="M11.08,75.4h-.24c-.05,0-.08-.02-.09-.07l-.37-1.73h-3.02l-.77,1.74s-.05,.06-.1,.06h-.24l2.98-6.65h.4l1.46,6.65Zm-3.59-2.07h2.83c-.3-1.43-.62-2.87-.93-4.31l-1.9,4.31Z"/><path class="uuid-20479cec-ccdf-4a6c-bc25-9af62e9c37a5" d="M15.17,68.75c.06,0,.09,.02,.08,.08l-.78,6.31h2.79s.08,.02,.07,.09l-.02,.17h-3.14l.81-6.65h.18Z"/><path class="uuid-20479cec-ccdf-4a6c-bc25-9af62e9c37a5" d="M24.54,68.94c-.01,.06-.04,.08-.09,.08h-2.74l-.37,2.87h2.53c.06,0,.09,.03,.08,.09v.09c-.02,.06-.05,.08-.1,.08h-2.54l-.37,2.99h2.74c.05,0,.08,.02,.07,.09l-.02,.17h-3.09l.81-6.65h3.1l-.02,.18Z"/><path class="uuid-20479cec-ccdf-4a6c-bc25-9af62e9c37a5" d="M29.63,71.98l1.65,3.42h-.26s-.08-.02-.1-.06c-.46-1.03-.96-2.07-1.5-3.11-.7,1.03-1.44,2.07-2.22,3.12-.03,.04-.06,.05-.1,.05h-.3l2.5-3.4-1.57-3.25h.23c.05,0,.08,.02,.1,.06,.5,.96,.98,1.95,1.41,2.93,.75-1.01,1.46-2,2.13-2.94,.03-.04,.06-.05,.11-.05h.29l-2.37,3.23Z"/><path class="uuid-20479cec-ccdf-4a6c-bc25-9af62e9c37a5" d="M35.42,68.75c.06,0,.09,.02,.08,.08l-.8,6.57h-.27l.81-6.65h.18Z"/><path class="uuid-20479cec-ccdf-4a6c-bc25-9af62e9c37a5" d="M40.95,72.06c.81,.31,1.12,.88,1.02,1.78v.09c-.13,1.12-.67,1.59-1.76,1.59-.39,0-1.11-.15-1.68-.37l.04-.2c.01-.06,.05-.08,.1-.06,.33,.13,.82,.27,1.19,.34,.13,0,.32,.02,.41,.02,.88,0,1.31-.38,1.41-1.27l.02-.18c.08-.73-.19-1.23-.81-1.47l-.98-.39c-.76-.29-1.12-.92-1-1.78v-.07c.16-1.05,.69-1.46,1.78-1.46,.37,0,.93,.09,1.41,.22l-.02,.17c-.01,.07-.04,.09-.09,.08-.26-.07-.62-.16-.93-.2-.15-.01-.32-.01-.45-.01-.85,0-1.31,.39-1.41,1.18l-.02,.15c-.09,.7,.19,1.23,.93,1.51l.84,.32Z"/><path class="uuid-20479cec-ccdf-4a6c-bc25-9af62e9c37a5" d="M53.75,68.94c-.01,.06-.04,.08-.09,.08h-2.74l-.37,2.87h2.53c.06,0,.09,.03,.08,.09v.09c-.02,.06-.05,.08-.1,.08h-2.54l-.37,2.99h2.74c.05,0,.08,.02,.07,.09l-.02,.17h-3.09l.81-6.65h3.1l-.02,.18Z"/><path class="uuid-20479cec-ccdf-4a6c-bc25-9af62e9c37a5" d="M59.11,72.06c.81,.31,1.12,.88,1.02,1.78v.09c-.13,1.12-.67,1.59-1.76,1.59-.39,0-1.11-.15-1.68-.37l.04-.2c.01-.06,.05-.08,.1-.06,.33,.13,.82,.27,1.19,.34,.13,0,.32,.02,.41,.02,.88,0,1.31-.38,1.41-1.27l.02-.18c.08-.73-.19-1.23-.81-1.47l-.98-.39c-.76-.29-1.12-.92-1-1.78v-.07c.16-1.05,.69-1.46,1.78-1.46,.37,0,.93,.09,1.41,.22l-.02,.17c-.01,.07-.04,.09-.09,.08-.26-.07-.62-.16-.93-.2-.15-.01-.32-.01-.45-.01-.85,0-1.31,.39-1.41,1.18l-.02,.15c-.09,.7,.19,1.23,.93,1.51l.84,.32Z"/><path class="uuid-20479cec-ccdf-4a6c-bc25-9af62e9c37a5" d="M67.73,70.61v.1c-.13,1.26-.93,1.97-2.34,1.97-.39,0-.8-.05-1.41-.2l-.34,2.84c-.01,.06-.03,.08-.09,.08h-.19l.82-6.69c.66-.06,1.13-.08,1.49-.08,1.45,0,2.2,.74,2.06,1.98Zm-3.32-1.65l-.4,3.28c.49,.12,.92,.18,1.4,.18,1.23,0,1.88-.59,2.02-1.7v-.08c.14-1.1-.47-1.75-1.8-1.75-.46,0-.91,.03-1.23,.06Z"/><path class="uuid-20479cec-ccdf-4a6c-bc25-9af62e9c37a5" d="M71.49,68.75c.06,0,.09,.02,.08,.08l-.8,6.57h-.27l.81-6.65h.18Z"/><path class="uuid-20479cec-ccdf-4a6c-bc25-9af62e9c37a5" d="M78.7,75.4h-.28s-.08-.02-.1-.06l-2.65-6.25-.76,6.23c-.01,.06-.03,.08-.09,.08h-.19l.81-6.65h.33s.08,.02,.1,.06c.9,2.05,1.78,4.13,2.61,6.2l.76-6.19c.01-.06,.04-.07,.09-.07h.19l-.81,6.65Z"/><path class="uuid-20479cec-ccdf-4a6c-bc25-9af62e9c37a5" d="M87.18,70.77l-.32,2.66c-.17,1.41-.82,2.09-2.19,2.09s-2.09-.76-1.92-2.19l.33-2.62c.18-1.51,.83-2.08,2.18-2.08,1.43,0,2.09,.78,1.93,2.14Zm-3.84-.07l-.33,2.68c-.15,1.26,.49,1.89,1.65,1.89s1.75-.58,1.91-1.84l.32-2.69c.16-1.26-.47-1.86-1.69-1.86-1.14,0-1.71,.48-1.88,1.82Z"/><path class="uuid-20479cec-ccdf-4a6c-bc25-9af62e9c37a5" d="M94.51,68.92c-.01,.05-.02,.07-.04,.1-1.39,2-2.72,4.04-4.05,6.12h3.25c.05,0,.07,.02,.07,.09v.17h-3.71v-.17s.02-.06,.04-.09l4.07-6.12h-3.19c-.06,0-.09-.03-.08-.09l.02-.17h3.65l-.03,.16Z"/><path class="uuid-20479cec-ccdf-4a6c-bc25-9af62e9c37a5" d="M101.29,75.4h-.24c-.05,0-.08-.02-.09-.07l-.37-1.73h-3.02l-.77,1.74s-.05,.06-.1,.06h-.24l2.98-6.65h.4l1.46,6.65Zm-3.59-2.07h2.83c-.3-1.43-.62-2.87-.93-4.31l-1.9,4.31Z"/></g></g><g><g><rect class="uuid-dcd3fd9f-edec-497e-b35e-ab9b63164f18" x="50.65" y="18.75" width="6.25" height="6.25" rx="2.5" ry="2.5"/><path class="uuid-dcd3fd9f-edec-497e-b35e-ab9b63164f18" d="M63.15,6.25h-6.25v6.25h6.25v6.25h3.75c1.38,0,2.5-1.12,2.5-2.5V6.25h-6.25Z"/><path class="uuid-dcd3fd9f-edec-497e-b35e-ab9b63164f18" d="M56.9,31.25h-12.5v-12.5h6.25v-3.75c0-1.38-1.12-2.5-2.5-2.5h-10v25h18.75v3.75c0,1.38,1.12,2.5,2.5,2.5h3.75V25h-6.25v6.25Z"/></g><rect class="uuid-a8f30b65-0e2e-4754-a31e-f7d0196bea2c" x="31.9" y="3.12" width="43.75" height="43.75"/></g></g></g></svg>