<?xml version="1.0" encoding="UTF-8"?><svg id="uuid-355f7ea2-4d71-4db3-818f-9d20029c0ef9" xmlns="http://www.w3.org/2000/svg" viewBox="0 0 90.68 25.58"><defs><style>.uuid-b1e085e0-cf44-4c3a-a408-249bdb0b6b7e{fill:#de7365;}.uuid-1d58908e-71d0-409e-b975-9e7f1112d8cb{fill:none;}</style></defs><g id="uuid-db036501-af65-40fd-ac61-930bbca136e3"><g><g><rect class="uuid-b1e085e0-cf44-4c3a-a408-249bdb0b6b7e" x="10.96" y="9.14" width="3.65" height="3.65" rx="1.46" ry="1.46"/><path class="uuid-b1e085e0-cf44-4c3a-a408-249bdb0b6b7e" d="M18.27,1.83h-3.65v3.65h3.65v3.65h2.19c.81,0,1.46-.65,1.46-1.46V1.83h-3.65Z"/><path class="uuid-b1e085e0-cf44-4c3a-a408-249bdb0b6b7e" d="M14.62,16.45H7.31v-7.31h3.65v-2.19c0-.81-.65-1.46-1.46-1.46H3.65v14.62H14.62v2.19c0,.81,.65,1.46,1.46,1.46h2.19V12.79h-3.65v3.65Z"/></g><rect class="uuid-1d58908e-71d0-409e-b975-9e7f1112d8cb" y="0" width="25.58" height="25.58"/><rect class="uuid-1d58908e-71d0-409e-b975-9e7f1112d8cb" x="21.93" y="0" width="68.75" height="25.58"/><g><rect class="uuid-b1e085e0-cf44-4c3a-a408-249bdb0b6b7e" x="65.31" y="15.58" width="3.17" height="3.17" rx="1.27" ry="1.27"/><path class="uuid-b1e085e0-cf44-4c3a-a408-249bdb0b6b7e" d="M37.66,18.75h-2.79c-.38,0-.61-.19-.69-.55l-.34-1.7h-3.15l-.34,1.7c-.08,.36-.3,.55-.69,.55h-2.73l3.53-12.5h3.67l3.53,12.5Zm-6.45-4.85h2.12l-1.05-5.17-1.07,5.17Z"/><path class="uuid-b1e085e0-cf44-4c3a-a408-249bdb0b6b7e" d="M40.58,6.25c.4,0,.63,.23,.63,.63V15.83h3.74c.4,0,.63,.23,.63,.63v2.29h-7.54V6.25h2.54Z"/><path class="uuid-b1e085e0-cf44-4c3a-a408-249bdb0b6b7e" d="M53.73,8.56c0,.4-.23,.63-.63,.63h-3.68v1.76h3.3c.4,0,.63,.23,.63,.63v1.66c0,.4-.23,.63-.63,.63h-3.3v1.95h3.68c.4,0,.63,.23,.63,.63v2.31h-7.48V6.25h7.48v2.31Z"/><path class="uuid-b1e085e0-cf44-4c3a-a408-249bdb0b6b7e" d="M61.1,12.38l3.67,6.38h-3.19c-.34,0-.59-.15-.73-.48l-1.53-3.34-1.57,3.34c-.13,.32-.36,.48-.72,.48h-3.11l3.67-6.38-3.49-6.13h3.15c.34,0,.57,.15,.72,.48l1.39,3.09,1.41-3.09c.13-.32,.38-.48,.73-.48h3.11l-3.51,6.13Z"/><g><path class="uuid-b1e085e0-cf44-4c3a-a408-249bdb0b6b7e" d="M77.01,7.28c-.04,.29-.21,.44-.5,.44h-4.52l-.48,3.95h4.07c.32,0,.52,.17,.46,.52l-.08,.5c-.04,.29-.19,.44-.5,.44h-4.14l-.52,4.16h4.47c.31,0,.48,.17,.44,.5l-.1,.97h-6.59l1.53-12.5h6.59l-.13,1.03Z"/><path class="uuid-b1e085e0-cf44-4c3a-a408-249bdb0b6b7e" d="M83.38,12c1.66,.69,2.35,1.85,2.06,3.74l-.04,.25c-.3,1.99-1.53,3-3.82,3-1.15,0-2.25-.29-3.49-.88l.13-1.05c.04-.36,.27-.5,.57-.34,.69,.34,1.53,.63,2.16,.78,.27,.04,.4,.04,.67,.04,1.3,0,1.95-.53,2.14-1.68l.04-.21c.21-1.18-.15-1.79-1.28-2.25l-1.7-.69c-1.66-.67-2.39-2.16-1.97-4.01l.04-.17c.36-1.62,1.57-2.5,3.84-2.5,.74,0,1.76,.15,2.94,.44l-.13,1.07c-.04,.31-.25,.46-.57,.36-.52-.15-1.11-.31-1.7-.4-.23-.02-.42-.02-.65-.02-1.28,0-1.95,.5-2.1,1.43l-.04,.23c-.17,1.07,.21,1.77,1.32,2.21l1.58,.65Z"/></g></g></g></g></svg>